HIERARCHY
ROOT Hips
{
  OFFSET 267.745 86.9975 -272.335
  CHANNELS 6 Xposition Yposition Zposition Zrotation Xrotation Yrotation
  JOINT LeftUpLeg
  {
    OFFSET 8.64259 1.95398 -2.38835
    CHANNELS 3 Zrotation Xrotation Yrotation
    JOINT LeftLeg
    {
      OFFSET 43.7702 0 0
      CHANNELS 3 Zrotation Xrotation Yrotation
      JOINT LeftFoot
      {
        OFFSET 40.6238 0 0
        CHANNELS 3 Zrotation Xrotation Yrotation
        JOINT LeftToeBase
        {
          OFFSET 12.7242 0 0
          CHANNELS 3 Zrotation Xrotation Yrotation
          End Site
          {
            OFFSET 0 0 0
          }
        }
      }
    }
  }
  JOINT RightUpLeg
  {
    OFFSET -8.2249 1.95398 -2.59336
    CHANNELS 3 Zrotation Xrotation Yrotation
    JOINT RightLeg
    {
      OFFSET 43.5653 0 0
      CHANNELS 3 Zrotation Xrotation Yrotation
      JOINT RightFoot
      {
        OFFSET 40.6238 0 0
        CHANNELS 3 Zrotation Xrotation Yrotation
        JOINT RightToeBase
        {
          OFFSET 12.7242 0 0
          CHANNELS 3 Zrotation Xrotation Yrotation
          End Site
          {
            OFFSET 0 0 0
          }
        }
      }
    }
  }
  JOINT Spine
  {
    OFFSET 0.165834 0.87714 6.61349
    CHANNELS 3 Zrotation Xrotation Yrotation
    JOINT Spine1
    {
      OFFSET 7.38963 1.71661e-005 0
      CHANNELS 3 Zrotation Xrotation Yrotation
      JOINT Spine2
      {
        OFFSET 11.9445 1.14441e-005 0
        CHANNELS 3 Zrotation Xrotation Yrotation
        JOINT Spine3
        {
          OFFSET 14.7254 4.19617e-005 0
          CHANNELS 3 Zrotation Xrotation Yrotation
          JOINT Spine4
          {
            OFFSET 10.9679 0 0
            CHANNELS 3 Zrotation Xrotation Yrotation
            JOINT RightShoulder
            {
              OFFSET 2.46616 -1.6653 3.69651
              CHANNELS 3 Zrotation Xrotation Yrotation
              JOINT RightArm
              {
                OFFSET 13.0012 0 0
                CHANNELS 3 Zrotation Xrotation Yrotation
                JOINT RightForeArm
                {
                  OFFSET 28.7848 1.52588e-005 0
                  CHANNELS 3 Zrotation Xrotation Yrotation
                  JOINT RightHand
                  {
                    OFFSET 26.5688 1.52588e-005 0
                    CHANNELS 3 Zrotation Xrotation Yrotation
                    End Site
                    {
                      OFFSET 0 0 0
                    }
                  }
                }
              }
            }
            JOINT LeftShoulder
            {
              OFFSET 2.38034 -1.29275 -3.7523
              CHANNELS 3 Zrotation Xrotation Yrotation
              JOINT LeftArm
              {
                OFFSET 16.3182 6.10352e-005 0
                CHANNELS 3 Zrotation Xrotation Yrotation
                JOINT LeftForeArm
                {
                  OFFSET 27.0901 0 0
                  CHANNELS 3 Zrotation Xrotation Yrotation
                  JOINT LeftHand
                  {
                    OFFSET 24.5451 1.52588e-005 0
                    CHANNELS 3 Zrotation Xrotation Yrotation
                    End Site
                    {
                      OFFSET 0 0 0
                    }
                  }
                }
              }
            }
            JOINT Neck
            {
              OFFSET 5.0226 -0.0266342 0
              CHANNELS 3 Zrotation Xrotation Yrotation
              JOINT Head
              {
                OFFSET 6.69364 2.86102e-005 0
                CHANNELS 3 Zrotation Xrotation Yrotation
                End Site
                {
                  OFFSET 0 0 0
                }
              }
            }
          }
        }
      }
    }
  }
}
MOTION
Frames:	6
Frame Time:	0.0416667
133.592 96.8329 -120.493 103.211 49.6173 82.1228 179.885 17.1721 89.9907 -49.6736 6.36517 3.61746 56.7588 2.87199 5.32083 46.5475 -1.52188 11.7238 175.135 5.62385 91.7307 -33.8944 -3.25894 0.964215 72.7202 3.09935 14.5431 23.525 1.37948 -0.472729 0.064626 8.09751 -90.5182 10.6772 -0.10989 -1.02016 -0.994098 -0.154668 -1.01435 -23.5261 0.201786 -1.00604 -3.51348 0.201766 -1.00604 102.3 -49.192 -81.9552 30.1511 -7.47995 -3.12287 -4.93941 -16.032 -24.9346 -12.2482 -0.61665 0.690802 -81.7452 -50.7558 90.992 -33.146 -4.13046 -19.4934 2.26119 44.5867 -2.64529 -4.21565 -0.0956344 -4.05161 11.4066 0.825101 -11.168 -26.3079 -0.261497 18.926 
129.391 96.7473 -117.545 103.3 51.4 81.6066 -178.333 11.1818 91.3925 -58.5632 6.67927 3.87817 57.3363 3.78231 7.55069 48.9873 -1.62135 10.4795 174.512 9.1953 90.3363 -33.9234 -3.92354 1.60189 70.6083 4.29699 13.9472 20.9008 2.3259 -2.14316 -0.166683 7.96226 -90.5341 10.9463 -0.578911 -1.00608 -0.724955 -0.622625 -0.979631 -23.2572 -0.249792 -1.13353 -3.24452 -0.249807 -1.13353 102.631 -50.0983 -81.4422 29.2869 -5.92057 -1.4451 -2.63527 -17.5654 -19.1252 -12.9362 -0.725529 1.37485 -81.8961 -50.6543 90.7574 -33.8409 -2.21136 -19.8676 5.50228 41.7946 -8.79446 -4.90839 -0.0855743 -4.77385 10.4165 1.03964 -11.172 -25.7357 0.167669 17.8204 
125.018 96.9294 -114.528 102.294 55.0272 83.2697 -176.265 3.75861 95.6198 -54.4852 9.4557 4.84583 59.2496 4.46772 5.87461 52.2846 -1.8428 8.70315 174.452 12.0996 90.548 -30.8681 -2.72308 2.18593 66.1634 6.07188 13.4165 21.0675 2.04858 -0.701111 -0.639446 7.73201 -90.6875 11.4004 -1.59322 -1.20922 -0.270092 -1.64489 -1.13793 -22.8053 -1.15619 -1.6321 -2.79265 -1.15618 -1.6321 103.07 -50.7629 -80.7704 28.7029 -2.89912 -0.199852 -1.81344 -19.8229 -15.086 -11.998 -0.757029 2.23369 -82.0304 -50.2085 90.5211 -34.865 1.44649 -19.6698 8.11825 37.9332 -15.4035 -3.53026 -0.070258 -6.08248 7.91002 0.591155 -10.365 -23.7256 0.34327 13.7758 
119.858 97.1143 -111.197 102.225 58.6062 83.6404 -176.074 -3.24833 97.3463 -41.5676 14.3986 6.6761 60.211 3.21732 0.196706 50.5646 -1.88776 7.24066 174.735 14.3341 89.8496 -26.5024 -3.49148 2.15686 59.4733 7.68569 10.6592 23.7478 1.42919 -1.26575 -1.05317 7.69966 -90.7457 11.4613 -2.44373 -1.2371 -0.207824 -2.4958 -1.12832 -22.7511 -1.95899 -1.91444 -2.73842 -1.959 -1.91444 103.302 -50.8969 -80.4131 29.107 -0.888136 0.459655 -1.58797 -18.6443 -14.5079 -11.2586 -0.723145 2.36787 -82.3619 -49.1109 89.9285 -35.6198 5.56305 -20.9462 10.41 35.5363 -21.649 -3.62366 -0.075905 -5.60582 6.82555 -0.411468 -10.708 -22.8737 -0.327267 12.3865 
113.46 96.608 -107.379 101.042 59.5089 84.8656 -177.413 -6.28095 95.3895 -30.7384 18.8628 7.7029 62.6989 4.73564 1.87793 58.624 -2.21502 7.67813 175.403 16.8791 88.3304 -20.9907 -2.52677 1.48264 53.0659 10.2107 12.2678 24.7189 1.19311 -1.3926 -1.07434 7.7967 -90.7779 11.2661 -2.5001 -1.30113 -0.402983 -2.55494 -1.18981 -22.9463 -1.99352 -1.99245 -2.93364 -1.99351 -1.99245 103.293 -50.6691 -80.4219 29.4419 -1.25822 -0.459163 -1.68187 -17.9442 -15.2058 -11.5312 -0.673171 1.66236 -82.5692 -49.1048 89.6102 -35.2126 7.89966 -24.9022 11.6361 35.8476 -23.9955 -2.86948 -0.0833182 -6.02951 6.40313 -0.979334 -11.0068 -22.0885 -0.869498 12.9304 
106.642 96.6061 -102.657 104.114 56.7266 79.9337 -174.4 -7.39422 91.9154 -24.5541 20.602 4.16609 65.8173 8.2009 9.56681 50.9996 -2.20836 3.57678 175.016 17.2976 84.8672 -16.3663 -1.0699 0.765574 54.4791 9.00982 16.0434 30.7862 -0.543967 0.522963 -0.92351 8.32188 -90.3763 10.2265 -2.01204 -0.577435 -1.44293 -2.03549 -0.488294 -23.9872 -1.74547 -1.15558 -3.97451 -1.74545 -1.15558 102.685 -51.1913 -81.3697 29.5633 -2.33898 -3.19867 -2.27659 -17.5641 -16.9614 -12.2576 -0.680889 1.31735 -82.6079 -48.9717 89.5382 -33.7914 8.23886 -27.8375 11.5441 34.8517 -24.5424 -1.75987 -0.100474 -6.25293 6.92507 -0.838803 -11.7458 -21.5866 -0.642798 14.0114 
